Coordinates
version=1
nRows=10
nColumns=63
inDegrees=yes

Units are S.I. units (second, meters, Newtons, ...)
If the header above contains a line with 'inDegrees', this indicates whether rotational values are in degrees (yes) or radians (no).

endheader
time	pelvis_tilt	pelvis_list	pelvis_rotation	pelvis_tx	pelvis_ty	pelvis_tz	hip_flexion_r	hip_adduction_r	hip_rotation_r	knee_angle_r	knee_angle_r_beta	ankle_angle_r	subtalar_angle_r	mtp_angle_r	hip_flexion_l	hip_adduction_l	hip_rotation_l	knee_angle_l	knee_angle_l_beta	ankle_angle_l	subtalar_angle_l	mtp_angle_l	L5_S1_Flex_Ext	L5_S1_Lat_Bending	L5_S1_axial_rotation	L4_L5_Flex_Ext	L4_L5_Lat_Bending	L4_L5_axial_rotation	L3_L4_Flex_Ext	L3_L4_Lat_Bending	L3_L4_axial_rotation	L2_L3_Flex_Ext	L2_L3_Lat_Bending	L2_L3_axial_rotation	L1_L2_Flex_Ext	L1_L2_Lat_Bending	L1_L2_axial_rotation	L1_T12_Flex_Ext	L1_T12_Lat_Bending	L1_T12_axial_rotation	Abs_r3	Abs_r2	Abs_r1	Abs_t1	Abs_t2	neck_flexion	neck_bending	neck_rotation	arm_flex_r	arm_add_r	arm_rot_r	elbow_flex_r	pro_sup_r	wrist_flex_r	wrist_dev_r	arm_flex_l	arm_add_l	arm_rot_l	elbow_flex_l	pro_sup_l	wrist_flex_l	wrist_dev_l
      2.44000000	      1.38547153	    -14.71599921	    101.30545827	      0.09068557	      0.99151993	      0.44785694	      8.95606998	     -0.41788455	     -6.04755580	      7.02271998	      0.12256959	     18.71095701	     -0.82187185	      0.00000000	      9.33806640	      1.29339692	     -4.85437881	      5.80261831	      0.10127479	     19.32351809	     -0.75838722	      0.00000000	      0.14019277	      0.14788118	      0.12433183	      0.26035199	      0.19668198	      0.13210257	      0.23032270	      0.35955831	      0.13210257	      0.16022632	      0.35955831	      0.10879035	      0.13018301	      0.30155931	      0.10101961	      0.08010615	      0.22906796	      0.09324887	      1.00138294	      1.67286154	      0.69149632	      0.00000000	      0.00000000	     16.55282442	      2.32297903	     10.32226625	      5.80326023	    -17.87774763	     24.11791014	     51.03426196	     87.97429396	     -7.24491310	      2.37285493	      8.16070448	    -16.63194182	     47.51876491	     40.46948589	     88.85844785	    -12.20284299	     -5.51701898
      2.46000000	      1.27536907	    -14.83573784	    100.32745963	      0.09381141	      0.99122399	      0.44925363	      9.20735516	     -0.23748079	     -4.41245892	      6.70673869	      0.11705467	     18.27307876	     -1.40603002	      0.00000000	      9.40132097	      1.21284531	     -5.11648905	      5.52348773	      0.09640305	     19.17165303	     -1.45783192	      0.00000000	      0.13137565	      0.13748850	      0.21043608	      0.24397772	      0.18285970	      0.22358834	      0.21583706	      0.33428953	      0.22358834	      0.15014923	      0.33428953	      0.18413157	      0.12199543	      0.28036654	      0.17097932	      0.07506805	      0.21296968	      0.15782706	      0.93840314	      1.55529737	      1.17038235	      0.00000000	      0.00000000	     18.22955994	      2.66452608	     11.06232945	      7.49324710	    -19.91168709	     26.26758859	     46.61853271	     87.43088065	    -10.30312503	      4.46308416	      8.76653901	    -17.67871838	     47.58438218	     37.48749701	     88.82898262	    -12.09679712	     -3.04918847
      2.48000000	      1.12308769	    -14.88284355	     99.35963095	      0.09664753	      0.99107064	      0.45026322	      9.37948018	     -0.10519780	     -2.81703915	      6.49639307	      0.11338345	     17.98633544	     -1.94071635	      0.00000000	      9.32694122	      1.18625696	     -5.24725055	      5.08150485	      0.08868899	     19.11755981	     -2.21902222	      0.00000000	      0.12178181	      0.12313690	      0.29723656	      0.22616099	      0.16377207	      0.31581384	      0.20007533	      0.29939505	      0.31581384	      0.13918443	      0.29939505	      0.26008199	      0.11308659	      0.25110076	      0.24150470	      0.06958612	      0.19073905	      0.22292742	      0.86987527	      1.39294919	      1.65314057	      0.00000000	      0.00000000	     19.56509227	      3.06996091	     11.44160768	      9.16389865	    -21.88669515	     30.39115122	     42.70020714	     86.78691192	    -11.42624490	      6.32615978	      8.67932335	    -18.62367338	     46.35923397	     35.31807321	     88.66856997	    -11.28166346	     -0.49654184
      2.50000000	      0.95780832	    -14.76640951	     98.77972342	      0.09892537	      0.99133760	      0.45076803	      9.28440099	     -0.04270733	     -2.17234063	      6.24676507	      0.10902662	     17.92094238	     -1.81963538	      0.00000000	      9.16150753	      1.17935267	     -5.37615597	      4.71035826	      0.08221126	     19.19118459	     -2.53087865	      0.00000000	      0.10374795	      0.10745012	      0.37618711	      0.19267033	      0.14290866	      0.39969880	      0.17044752	      0.26125422	      0.39969880	      0.11857354	      0.26125422	      0.32916372	      0.09634035	      0.21911228	      0.30565203	      0.05928158	      0.16644023	      0.28214033	      0.74106127	      1.21549722	      2.09223984	      0.00000000	      0.00000000	     20.58827302	      3.35771466	     11.21231296	      9.69667178	    -23.41247745	     32.43157746	     40.31451171	     86.73451747	    -10.21622561	      7.81380489	      8.49060649	    -19.11480656	     45.04200002	     32.92920291	     88.16746910	    -10.89137713	      1.26661384
      2.52000000	      0.61083341	    -14.66096922	     98.12792001	      0.10135808	      0.99131061	      0.45018544	      9.18160104	     -0.13450936	     -0.94016396	      6.16023744	      0.10751643	     18.27854439	     -2.22273654	      0.00000000	      8.82792939	      1.36819539	     -4.77834668	      4.12832332	      0.07205283	     19.28626519	     -3.66911654	      0.00000000	      0.10296630	      0.07758482	      0.26360029	      0.19121872	      0.10318782	      0.28007530	      0.16916333	      0.18863974	      0.28007530	      0.11768018	      0.18863974	      0.23065025	      0.09561451	      0.15821097	      0.21417523	      0.05883494	      0.12017889	      0.19770021	      0.73547798	      0.87765505	      1.46606571	      0.00000000	      0.00000000	     21.33075256	      4.16724871	     12.62729914	     10.78900344	    -24.73935494	     36.21016424	     39.04414815	     85.55446029	     -8.21275322	      8.71089836	      5.79975762	    -19.65572522	     37.28396269	     32.78953110	     87.73432234	     -8.98513524	      3.92683481
      2.54000000	      0.41384693	    -14.26973612	     97.69194788	      0.10354932	      0.99204315	      0.44912923	      8.74158588	     -0.08362453	     -0.46036985	      6.02568408	      0.10516803	     18.80173110	     -1.90423253	      0.00000000	      8.26992604	      1.35690198	     -4.48517559	      3.70863668	      0.06472792	     19.37066460	     -4.20282830	      0.00000000	      0.08029864	      0.06913981	      0.26055353	      0.14912260	      0.09195594	      0.27683813	      0.13192263	      0.16810653	      0.27683813	      0.09177331	      0.16810653	      0.22798434	      0.07456531	      0.14098990	      0.21169975	      0.04588264	      0.10709756	      0.19541515	      0.57356513	      0.78212333	      1.44912058	      0.00000000	      0.00000000	     21.45787132	      4.43371788	     13.26142804	     10.07409363	    -25.88338639	     36.44831212	     39.32849633	     84.79106419	     -5.62751460	      9.07897536	      4.57230882	    -19.73492360	     33.37828485	     31.74289302	     85.87264697	     -8.89029945	      4.66998407
      2.56000000	      0.06747068	    -13.82965574	     97.55004211	      0.10560024	      0.99303270	      0.44768586	      8.26198095	     -0.22176561	     -0.52444127	      6.05172253	      0.10562248	     19.62837222	     -1.41141283	      0.00000000	      7.77693604	      1.51202913	     -4.02205199	      3.65251142	      0.06374835	     19.20692215	     -4.87446126	      0.00000000	      0.05796934	      0.04028084	      0.21074061	      0.10765487	      0.05357352	      0.22391190	      0.09523783	      0.09793883	      0.22391190	      0.06625316	      0.09793883	      0.18439804	      0.05383033	      0.08214069	      0.17122675	      0.03312368	      0.06239502	      0.15805546	      0.41406921	      0.45566490	      1.17207608	      0.00000000	      0.00000000	     21.05652994	      4.96165232	     14.11581775	      8.89995234	    -26.66183260	     36.47142552	     40.02947496	     83.90305553	     -2.80669294	      8.36878117	      3.46721100	    -20.01782170	     30.38995134	     31.75696092	     84.76143424	     -8.96393213	      5.35412075
      2.58000000	     -0.26159752	    -13.34222288	     97.71655011	      0.10743925	      0.99419419	      0.44615830	      7.69039621	     -0.38366931	     -1.11795311	      6.06557041	      0.10586417	     20.57317521	     -0.52394576	      0.00000000	      7.33105441	      1.66438790	     -3.19523952	      3.86371297	      0.06743451	     18.99039625	     -5.69839140	      0.00000000	      0.03158176	      0.00931866	      0.15182084	      0.05865048	      0.01239381	      0.16130964	      0.05188567	      0.02265738	      0.16130964	      0.03609479	      0.02265738	      0.13284323	      0.02932682	      0.01900261	      0.12335443	      0.01804582	      0.01443460	      0.11386563	      0.22558533	      0.10541452	      0.84438196	      0.00000000	      0.00000000	     20.50501853	      5.23800726	     14.50080849	      7.47452280	    -27.05624939	     36.28380295	     41.08860978	     82.52959973	     -0.12267089	      7.19080818	      2.88894272	    -20.53439199	     29.88283707	     32.66599027	     85.67040834	     -9.20181016	      6.62857455
      2.60000000	     -0.52464426	    -12.83633747	     97.86508605	      0.10884855	      0.99536350	      0.44456337	      7.08995725	     -0.48407553	     -0.98329552	      6.08949931	      0.10628181	     21.38505332	     -0.33540429	      0.00000000	      6.89994387	      1.77148839	     -3.20097992	      4.20139185	      0.07332812	     18.78754585	     -5.82884087	      0.00000000	      0.00349981	     -0.01092773	      0.07574509	      0.00649950	     -0.01453388	      0.08047916	      0.00574984	     -0.02656968	      0.08047916	      0.00399994	     -0.02656968	      0.06627695	      0.00324993	     -0.02228383	      0.06154289	      0.00199979	     -0.01692705	      0.05680882	      0.02499882	     -0.12361666	      0.42127147	      0.00000000	      0.00000000	     19.90803424	      5.28227901	     14.39384827	      6.33665344	    -27.14787678	     36.45665203	     43.06054921	     82.04914212	      0.61216985	      6.64257476	      2.33723628	    -20.77457159	     30.53781865	     33.80055397	     86.24832555	     -9.07776597	      6.57186019
      2.62000000	     -0.76275082	    -12.49371048	     98.32387786	      0.10975686	      0.99572279	      0.44291032	      6.66622826	     -0.81842645	     -4.88606785	      6.29719995	      0.10990687	     23.17916923	      4.77769794	      0.00000000	      6.53344569	      1.97725004	     -0.92743161	      4.33894362	      0.07572885	     18.63648915	     -7.96333405	      0.00000000	     -0.00933603	     -0.04004795	      0.15274956	     -0.01733795	     -0.05326377	      0.16229640	     -0.01533817	     -0.09737258	      0.16229640	     -0.01067015	     -0.09737258	      0.13365586	     -0.00866944	     -0.08166577	      0.12410902	     -0.00533461	     -0.06203427	      0.11456217	     -0.06668635	     -0.45303039	      0.84954721	      0.00000000	      0.00000000	     20.12825536	      5.13226860	     12.93798016	      3.97263111	    -26.84488382	     33.80963279	     46.36585581	     77.07067361	      1.80403159	      7.60501946	      3.54390590	    -21.47086796	     37.22535404	     35.38744985	     87.34675807	    -10.48986417	      6.98404614
